<svg xmlns="http://www.w3.org/2000/svg" width="44" height="27" viewBox="0 0 44 27" fill="none">
<path d="M8.54907 16.8621L10.8777 18.3646L36.0092 18.0537L31.7604 8.15702L28.2888 3.85645H10.8777L8.54907 16.8621Z" fill="#555E79"/>
<path d="M34.0039 10.6885V14.5015L39.9069 13.6217L34.0039 10.6885Z" fill="#555E79" stroke="#555E79" stroke-width="0.609134"/>
<mask id="path-3-outside-1_880_40312" maskUnits="userSpaceOnUse" x="0.213623" y="11.8877" width="44" height="14" fill="black">
<rect fill="white" x="0.213623" y="11.8877" width="44" height="14"/>
<path d="M2.36591 17.4613C2.36591 16.4563 2.67047 15.6745 3.27961 15.1162C3.88874 14.5578 4.73138 14.2786 5.80751 14.2786C6.8938 14.2786 8.01055 14.3801 9.15775 14.5832L8.8075 17.2634C7.53847 17.0096 6.70599 16.8827 6.31005 16.8827C5.91411 16.8827 5.71614 17.0045 5.71614 17.2481C5.71614 17.3395 5.7466 17.4055 5.80751 17.4461C5.86843 17.4766 5.91411 17.5019 5.94457 17.5222C5.97503 17.5425 6.03086 17.5679 6.11208 17.5984C6.20345 17.6288 6.27452 17.6593 6.32528 17.6898C6.38619 17.7101 6.56893 17.7862 6.8735 17.9182C7.18822 18.04 7.42172 18.1415 7.574 18.2227C7.73644 18.2938 7.95471 18.4156 8.22882 18.5882C9.0207 19.106 9.41663 19.8674 9.41663 20.8725C9.41663 21.8776 9.11714 22.6593 8.51816 23.2176C7.91918 23.7659 7.05624 24.04 5.92934 24.04C4.81259 24.04 3.71615 23.9029 2.64002 23.6288L2.85321 21.0552C4.21361 21.4004 5.13239 21.573 5.60955 21.573C5.92426 21.573 6.08162 21.4613 6.08162 21.238C6.08162 21.1364 6.04102 21.0552 5.9598 20.9943C5.88873 20.9334 5.77706 20.8674 5.62477 20.7963C5.48264 20.7253 5.26945 20.6339 4.98518 20.5222C4.70092 20.4004 4.46234 20.2989 4.26945 20.2177C4.07656 20.1263 3.84813 19.9892 3.58417 19.8065C2.772 19.2481 2.36591 18.4664 2.36591 17.4613ZM17.9877 23.8877H14.7898L14.4852 22.4258H12.7949L12.4751 23.8877H9.41418L11.3786 14.4309H16.0233L17.9877 23.8877ZM14.2568 20.4613L13.6781 17.2938H13.6172L13.0233 20.4613H14.2568ZM26.423 14.4309L24.5956 23.8877H19.9205L17.9865 14.4309H21.5042L22.2352 20.2329H22.4179L23.0728 14.4309H26.423ZM33.0574 23.8877H27.0269V14.4309H33.2706L33.0574 16.9436H30.2858V18.0857H32.7071V20.2786H30.2858V21.573H33.2706L33.0574 23.8877ZM41.3626 17.4766C41.3626 18.0857 41.2611 18.573 41.058 18.9385C40.8651 19.2938 40.5606 19.6085 40.1443 19.8826L41.5605 23.8877H38.1951L37.2509 20.6288H37.0073V23.8877H33.8855V14.4309H37.921C39.0986 14.4309 39.9666 14.6796 40.525 15.1771C41.0834 15.6644 41.3626 16.4309 41.3626 17.4766ZM37.3271 18.771C37.5606 18.771 37.723 18.705 37.8144 18.573C37.9159 18.4309 37.9667 18.1872 37.9667 17.842C37.9667 17.4969 37.9159 17.2583 37.8144 17.1263C37.7128 16.9943 37.5555 16.9283 37.3423 16.9283H36.9464V18.771H37.3271Z"/>
</mask>
<g filter="url(#filter0_i_880_40312)">
<path d="M2.36591 17.4613C2.36591 16.4563 2.67047 15.6745 3.27961 15.1162C3.88874 14.5578 4.73138 14.2786 5.80751 14.2786C6.8938 14.2786 8.01055 14.3801 9.15775 14.5832L8.8075 17.2634C7.53847 17.0096 6.70599 16.8827 6.31005 16.8827C5.91411 16.8827 5.71614 17.0045 5.71614 17.2481C5.71614 17.3395 5.7466 17.4055 5.80751 17.4461C5.86843 17.4766 5.91411 17.5019 5.94457 17.5222C5.97503 17.5425 6.03086 17.5679 6.11208 17.5984C6.20345 17.6288 6.27452 17.6593 6.32528 17.6898C6.38619 17.7101 6.56893 17.7862 6.8735 17.9182C7.18822 18.04 7.42172 18.1415 7.574 18.2227C7.73644 18.2938 7.95471 18.4156 8.22882 18.5882C9.0207 19.106 9.41663 19.8674 9.41663 20.8725C9.41663 21.8776 9.11714 22.6593 8.51816 23.2176C7.91918 23.7659 7.05624 24.04 5.92934 24.04C4.81259 24.04 3.71615 23.9029 2.64002 23.6288L2.85321 21.0552C4.21361 21.4004 5.13239 21.573 5.60955 21.573C5.92426 21.573 6.08162 21.4613 6.08162 21.238C6.08162 21.1364 6.04102 21.0552 5.9598 20.9943C5.88873 20.9334 5.77706 20.8674 5.62477 20.7963C5.48264 20.7253 5.26945 20.6339 4.98518 20.5222C4.70092 20.4004 4.46234 20.2989 4.26945 20.2177C4.07656 20.1263 3.84813 19.9892 3.58417 19.8065C2.772 19.2481 2.36591 18.4664 2.36591 17.4613ZM17.9877 23.8877H14.7898L14.4852 22.4258H12.7949L12.4751 23.8877H9.41418L11.3786 14.4309H16.0233L17.9877 23.8877ZM14.2568 20.4613L13.6781 17.2938H13.6172L13.0233 20.4613H14.2568ZM26.423 14.4309L24.5956 23.8877H19.9205L17.9865 14.4309H21.5042L22.2352 20.2329H22.4179L23.0728 14.4309H26.423ZM33.0574 23.8877H27.0269V14.4309H33.2706L33.0574 16.9436H30.2858V18.0857H32.7071V20.2786H30.2858V21.573H33.2706L33.0574 23.8877ZM41.3626 17.4766C41.3626 18.0857 41.2611 18.573 41.058 18.9385C40.8651 19.2938 40.5606 19.6085 40.1443 19.8826L41.5605 23.8877H38.1951L37.2509 20.6288H37.0073V23.8877H33.8855V14.4309H37.921C39.0986 14.4309 39.9666 14.6796 40.525 15.1771C41.0834 15.6644 41.3626 16.4309 41.3626 17.4766ZM37.3271 18.771C37.5606 18.771 37.723 18.705 37.8144 18.573C37.9159 18.4309 37.9667 18.1872 37.9667 17.842C37.9667 17.4969 37.9159 17.2583 37.8144 17.1263C37.7128 16.9943 37.5555 16.9283 37.3423 16.9283H36.9464V18.771H37.3271Z" fill="white"/>
</g>
<path d="M3.27961 15.1162L2.06079 13.7866L2.06079 13.7866L3.27961 15.1162ZM9.15775 14.5832L10.9463 14.8169C11.0712 13.8606 10.4218 12.9752 9.47211 12.8071L9.15775 14.5832ZM8.8075 17.2634L8.45376 19.032C8.94355 19.13 9.45203 19.0205 9.85805 18.7296C10.2641 18.4386 10.5313 17.9924 10.596 17.4971L8.8075 17.2634ZM5.80751 17.4461L4.80699 18.9469C4.86922 18.9884 4.93397 19.0259 5.00087 19.0594L5.80751 17.4461ZM5.94457 17.5222L4.94405 19.023L4.94405 19.023L5.94457 17.5222ZM6.11208 17.5984L5.47876 19.2873C5.4996 19.2951 5.52058 19.3025 5.5417 19.3095L6.11208 17.5984ZM6.32528 17.6898L5.39727 19.2364C5.51012 19.3041 5.63005 19.3593 5.7549 19.4009L6.32528 17.6898ZM6.8735 17.9182L6.15633 19.5732C6.17816 19.5826 6.20018 19.5917 6.22237 19.6003L6.8735 17.9182ZM7.574 18.2227L6.7252 19.8143C6.76634 19.8362 6.80832 19.8565 6.85104 19.8752L7.574 18.2227ZM8.22882 18.5882L9.2159 17.0786C9.20727 17.0729 9.19859 17.0674 9.18986 17.0619L8.22882 18.5882ZM8.51816 23.2176L9.73595 24.5482C9.74001 24.5445 9.74405 24.5408 9.74807 24.537L8.51816 23.2176ZM2.64002 23.6288L0.842462 23.4799C0.76976 24.3575 1.34142 25.1593 2.1948 25.3767L2.64002 23.6288ZM2.85321 21.0552L3.29682 19.3069C2.78268 19.1765 2.2372 19.2789 1.80544 19.587C1.37369 19.8952 1.09945 20.3777 1.05566 20.9063L2.85321 21.0552ZM5.9598 20.9943L4.78596 22.3638C4.81569 22.3893 4.84624 22.4138 4.87757 22.4373L5.9598 20.9943ZM5.62477 20.7963L4.81813 22.4096C4.83266 22.4169 4.84729 22.424 4.86201 22.4308L5.62477 20.7963ZM4.98518 20.5222L4.27467 22.1801C4.29155 22.1873 4.30855 22.1943 4.32565 22.201L4.98518 20.5222ZM4.26945 20.2177L3.49731 21.8477C3.52113 21.859 3.54521 21.8698 3.56951 21.88L4.26945 20.2177ZM3.58417 19.8065L4.61087 18.3235L4.60603 18.3202L3.58417 19.8065ZM4.16962 17.4613C4.16962 16.8437 4.34101 16.5901 4.49842 16.4458L2.06079 13.7866C0.999939 14.759 0.562194 16.0689 0.562194 17.4613H4.16962ZM4.49842 16.4458C4.68423 16.2755 5.04239 16.0823 5.80751 16.0823V12.4749C4.42037 12.4749 3.09325 12.8401 2.06079 13.7866L4.49842 16.4458ZM5.80751 16.0823C6.78113 16.0823 7.79254 16.1733 8.84339 16.3593L9.47211 12.8071C8.22856 12.587 7.00648 12.4749 5.80751 12.4749V16.0823ZM7.36925 14.3494L7.01899 17.0296L10.596 17.4971L10.9463 14.8169L7.36925 14.3494ZM9.16124 15.4947C7.93334 15.2491 6.91804 15.0789 6.31005 15.0789V18.6864C6.49393 18.6864 7.1436 18.77 8.45376 19.032L9.16124 15.4947ZM6.31005 15.0789C5.98569 15.0789 5.43858 15.1183 4.9193 15.4379C4.25639 15.8458 3.91243 16.5366 3.91243 17.2481H7.51986C7.51986 17.4354 7.48021 17.6871 7.33925 17.9473C7.19622 18.2114 6.99704 18.395 6.80994 18.5102C6.48863 18.7079 6.23847 18.6864 6.31005 18.6864V15.0789ZM3.91243 17.2481C3.91243 17.7729 4.11786 18.4875 4.80699 18.9469L6.80803 15.9453C7.05253 16.1083 7.25129 16.3386 7.37668 16.6103C7.49517 16.867 7.51986 17.0979 7.51986 17.2481H3.91243ZM5.00087 19.0594C5.01452 19.0662 5.01712 19.0678 5.0115 19.0647C5.00838 19.063 5.00121 19.0589 4.99087 19.0527C4.9808 19.0467 4.9646 19.0367 4.94405 19.023L6.94509 16.0215C6.82051 15.9384 6.69554 15.8735 6.61416 15.8328L5.00087 19.0594ZM4.94405 19.023C5.16433 19.1699 5.39582 19.2562 5.47876 19.2873L6.7454 15.9095C6.72875 15.9033 6.73478 15.905 6.75567 15.9145C6.76678 15.9195 6.78799 15.9294 6.8161 15.9443C6.84255 15.9583 6.88865 15.9838 6.94509 16.0215L4.94405 19.023ZM5.5417 19.3095C5.55091 19.3126 5.54333 19.3105 5.52339 19.3019C5.50528 19.2942 5.45917 19.2736 5.39727 19.2364L7.25329 16.1431C7.04182 16.0162 6.8314 15.9369 6.68246 15.8872L5.5417 19.3095ZM5.7549 19.4009C5.7208 19.3895 5.7056 19.3829 5.72995 19.3926C5.74676 19.3992 5.77407 19.4103 5.81428 19.4271C5.89436 19.4604 6.0074 19.5087 6.15633 19.5732L7.59067 16.2632C7.32506 16.1481 7.05084 16.0303 6.89565 15.9786L5.7549 19.4009ZM6.22237 19.6003C6.52037 19.7156 6.67171 19.7857 6.7252 19.8143L8.42281 16.6312C8.17173 16.4973 7.85606 16.3644 7.52463 16.2361L6.22237 19.6003ZM6.85104 19.8752C6.88977 19.8922 7.01854 19.9577 7.26778 20.1146L9.18986 17.0619C8.89089 16.8736 8.58311 16.6955 8.29696 16.5703L6.85104 19.8752ZM7.24174 20.0979C7.48725 20.2584 7.61292 20.4308 7.61292 20.8725H11.2203C11.2203 19.304 10.5541 17.9536 9.2159 17.0786L7.24174 20.0979ZM7.61292 20.8725C7.61292 21.4995 7.44051 21.7564 7.28825 21.8983L9.74807 24.537C10.7938 23.5622 11.2203 22.2556 11.2203 20.8725H7.61292ZM7.30037 21.8871C7.14407 22.0301 6.78112 22.2363 5.92934 22.2363V25.8437C7.33135 25.8437 8.69428 25.5016 9.73595 24.5482L7.30037 21.8871ZM5.92934 22.2363C4.96189 22.2363 4.01504 22.1178 3.08524 21.8809L2.1948 25.3767C3.41726 25.6881 4.6633 25.8437 5.92934 25.8437V22.2363ZM4.43757 23.7777L4.65077 21.2041L1.05566 20.9063L0.842462 23.4799L4.43757 23.7777ZM2.40961 22.8035C3.73528 23.1399 4.8706 23.3767 5.60954 23.3767V19.7693C5.39418 19.7693 4.69195 19.6609 3.29682 19.3069L2.40961 22.8035ZM5.60954 23.3767C5.92549 23.3767 6.48564 23.3305 7.0075 22.9602C7.64295 22.5092 7.88534 21.8284 7.88534 21.238H4.27791C4.27791 21.0827 4.30562 20.8602 4.41953 20.6177C4.53784 20.3658 4.71664 20.1624 4.91971 20.0183C5.28421 19.7596 5.60832 19.7693 5.60954 19.7693V23.3767ZM7.88534 21.238C7.88534 20.5687 7.57743 19.9529 7.04202 19.5513L4.87757 22.4373C4.72089 22.3198 4.55693 22.1457 4.43788 21.9076C4.31882 21.6694 4.27791 21.4338 4.27791 21.238H7.88534ZM7.13364 19.6248C6.8767 19.4046 6.59049 19.2566 6.38754 19.1618L4.86201 22.4308C4.89977 22.4485 4.91169 22.4559 4.90514 22.452C4.90117 22.4496 4.88875 22.4422 4.87005 22.4292C4.85173 22.4165 4.82226 22.3949 4.78596 22.3638L7.13364 19.6248ZM6.43142 19.1831C6.21568 19.0752 5.94239 18.9604 5.64472 18.8434L4.32565 22.201C4.5965 22.3074 4.7496 22.3754 4.81813 22.4096L6.43142 19.1831ZM5.6957 18.8644C5.40941 18.7417 5.16704 18.6385 4.96939 18.5553L3.56951 21.88C3.75764 21.9592 3.99244 22.0591 4.27467 22.1801L5.6957 18.8644ZM5.04159 18.5876C4.96969 18.5535 4.83006 18.4752 4.61087 18.3235L2.55748 21.2895C2.86621 21.5032 3.18342 21.6991 3.49731 21.8477L5.04159 18.5876ZM4.60603 18.3202C4.29476 18.1062 4.16962 17.8865 4.16962 17.4613H0.562194C0.562194 19.0463 1.24923 20.3901 2.56232 21.2928L4.60603 18.3202ZM17.9877 23.8877V25.6914C18.5305 25.6914 19.0443 25.447 19.3869 25.026C19.7294 24.6051 19.8641 24.0522 19.7538 23.5208L17.9877 23.8877ZM14.7898 23.8877L13.024 24.2556C13.1982 25.092 13.9354 25.6914 14.7898 25.6914V23.8877ZM14.4852 22.4258L16.251 22.0579C16.0768 21.2215 15.3396 20.6221 14.4852 20.6221V22.4258ZM12.7949 22.4258V20.6221C11.9472 20.6221 11.214 21.2123 11.0328 22.0403L12.7949 22.4258ZM12.4751 23.8877V25.6914C13.3227 25.6914 14.056 25.1012 14.2371 24.2731L12.4751 23.8877ZM9.41418 23.8877L7.64817 23.5208C7.53779 24.0522 7.67254 24.6051 8.01506 25.026C8.35758 25.447 8.87146 25.6914 9.41418 25.6914V23.8877ZM11.3786 14.4309V12.6272C10.5239 12.6272 9.78648 13.2271 9.61263 14.064L11.3786 14.4309ZM16.0233 14.4309L17.7893 14.064C17.6155 13.2271 16.8781 12.6272 16.0233 12.6272V14.4309ZM14.2568 20.4613V22.265C14.7919 22.265 15.2994 22.0274 15.6421 21.6165C15.9848 21.2055 16.1273 20.6636 16.0311 20.1372L14.2568 20.4613ZM13.6781 17.2938L15.4525 16.9697C15.2959 16.1127 14.5493 15.4901 13.6781 15.4901V17.2938ZM13.6172 17.2938V15.4901C12.7492 15.4901 12.0043 16.1083 11.8444 16.9614L13.6172 17.2938ZM13.0233 20.4613L11.2505 20.1289C11.1516 20.6563 11.2927 21.2003 11.6353 21.6132C11.978 22.0261 12.4867 22.265 13.0233 22.265V20.4613ZM17.9877 22.084H14.7898V25.6914H17.9877V22.084ZM16.5556 23.5198L16.251 22.0579L12.7194 22.7936L13.024 24.2556L16.5556 23.5198ZM14.4852 20.6221H12.7949V24.2295H14.4852V20.6221ZM11.0328 22.0403L10.713 23.5022L14.2371 24.2731L14.5569 22.8112L11.0328 22.0403ZM12.4751 22.084H9.41418V25.6914H12.4751V22.084ZM11.1802 24.2545L13.1447 14.7977L9.61263 14.064L7.64817 23.5208L11.1802 24.2545ZM11.3786 16.2346H16.0233V12.6272H11.3786V16.2346ZM14.2573 14.7977L16.2217 24.2545L19.7538 23.5208L17.7893 14.064L14.2573 14.7977ZM16.0311 20.1372L15.4525 16.9697L11.9038 17.618L12.4825 20.7855L16.0311 20.1372ZM13.6781 15.4901H13.6172V19.0975H13.6781V15.4901ZM11.8444 16.9614L11.2505 20.1289L14.7961 20.7937L15.39 17.6262L11.8444 16.9614ZM13.0233 22.265H14.2568V18.6576H13.0233V22.265ZM26.423 14.4309L28.1939 14.7731C28.2961 14.2446 28.1568 13.698 27.8141 13.2828C27.4715 12.8676 26.9613 12.6272 26.423 12.6272V14.4309ZM24.5956 23.8877V25.6914C25.4598 25.6914 26.2026 25.0784 26.3665 24.2299L24.5956 23.8877ZM19.9205 23.8877L18.1533 24.2491C18.325 25.0886 19.0636 25.6914 19.9205 25.6914V23.8877ZM17.9865 14.4309V12.6272C17.4447 12.6272 16.9317 12.8707 16.5891 13.2904C16.2466 13.7101 16.1108 14.2615 16.2193 14.7923L17.9865 14.4309ZM21.5042 14.4309L23.2938 14.2054C23.1802 13.3036 22.4132 12.6272 21.5042 12.6272V14.4309ZM22.2352 20.2329L20.4456 20.4583C20.5592 21.3602 21.3262 22.0366 22.2352 22.0366V20.2329ZM22.4179 20.2329V22.0366C23.3358 22.0366 24.1073 21.3473 24.2103 20.4352L22.4179 20.2329ZM23.0728 14.4309V12.6272C22.1549 12.6272 21.3834 13.3165 21.2804 14.2286L23.0728 14.4309ZM24.652 14.0887L22.8246 23.5455L26.3665 24.2299L28.1939 14.7731L24.652 14.0887ZM24.5956 22.084H19.9205V25.6914H24.5956V22.084ZM21.6876 23.5263L19.7536 14.0695L16.2193 14.7923L18.1533 24.2491L21.6876 23.5263ZM17.9865 16.2346H21.5042V12.6272H17.9865V16.2346ZM19.7147 14.6563L20.4456 20.4583L24.0248 20.0074L23.2938 14.2054L19.7147 14.6563ZM22.2352 22.0366H22.4179V18.4292H22.2352V22.0366ZM24.2103 20.4352L24.8651 14.6332L21.2804 14.2286L20.6256 20.0306L24.2103 20.4352ZM23.0728 16.2346H26.423V12.6272H23.0728V16.2346ZM33.0574 23.8877V25.6914C33.9894 25.6914 34.768 24.9813 34.8535 24.0531L33.0574 23.8877ZM27.0269 23.8877H25.2232C25.2232 24.8839 26.0308 25.6914 27.0269 25.6914V23.8877ZM27.0269 14.4309V12.6272C26.0308 12.6272 25.2232 13.4347 25.2232 14.4309H27.0269ZM33.2706 14.4309L35.0678 14.5834C35.1105 14.0803 34.9404 13.5824 34.5988 13.2106C34.2572 12.8388 33.7754 12.6272 33.2706 12.6272V14.4309ZM33.0574 16.9436V18.7473C33.9944 18.7473 34.7754 18.0298 34.8546 17.0961L33.0574 16.9436ZM30.2858 16.9436V15.1399C29.2896 15.1399 28.4821 15.9474 28.4821 16.9436H30.2858ZM30.2858 18.0857H28.4821C28.4821 19.0819 29.2896 19.8894 30.2858 19.8894V18.0857ZM32.7071 18.0857H34.5108C34.5108 17.0895 33.7033 16.282 32.7071 16.282V18.0857ZM32.7071 20.2786V22.0823C33.7033 22.0823 34.5108 21.2747 34.5108 20.2786H32.7071ZM30.2858 20.2786V18.4749C29.2896 18.4749 28.4821 19.2824 28.4821 20.2786H30.2858ZM30.2858 21.573H28.4821C28.4821 22.5691 29.2896 23.3767 30.2858 23.3767V21.573ZM33.2706 21.573L35.0667 21.7384C35.1132 21.2334 34.945 20.7322 34.6032 20.3575C34.2614 19.9828 33.7777 19.7693 33.2706 19.7693V21.573ZM33.0574 22.084H27.0269V25.6914H33.0574V22.084ZM28.8307 23.8877V14.4309H25.2232V23.8877H28.8307ZM27.0269 16.2346H33.2706V12.6272H27.0269V16.2346ZM31.4733 14.2784L31.2601 16.7911L34.8546 17.0961L35.0678 14.5834L31.4733 14.2784ZM33.0574 15.1399H30.2858V18.7473H33.0574V15.1399ZM28.4821 16.9436V18.0857H32.0895V16.9436H28.4821ZM30.2858 19.8894H32.7071V16.282H30.2858V19.8894ZM30.9034 18.0857V20.2786H34.5108V18.0857H30.9034ZM32.7071 18.4749H30.2858V22.0823H32.7071V18.4749ZM28.4821 20.2786V21.573H32.0895V20.2786H28.4821ZM30.2858 23.3767H33.2706V19.7693H30.2858V23.3767ZM31.4745 21.4076L31.2613 23.7223L34.8535 24.0531L35.0667 21.7384L31.4745 21.4076ZM41.058 18.9385L39.4813 18.0625C39.4784 18.0676 39.4756 18.0728 39.4728 18.0779L41.058 18.9385ZM40.1443 19.8826L39.1523 18.3762C38.4596 18.8324 38.1673 19.7021 38.4438 20.484L40.1443 19.8826ZM41.5605 23.8877V25.6914C42.1461 25.6914 42.6952 25.4072 43.0333 24.929C43.3714 24.4509 43.4563 23.8384 43.2611 23.2864L41.5605 23.8877ZM38.1951 23.8877L36.4626 24.3896C36.686 25.1608 37.3922 25.6914 38.1951 25.6914V23.8877ZM37.2509 20.6288L38.9834 20.1269C38.76 19.3558 38.0538 18.8251 37.2509 18.8251V20.6288ZM37.0073 20.6288V18.8251C36.0111 18.8251 35.2036 19.6327 35.2036 20.6288H37.0073ZM37.0073 23.8877V25.6914C38.0034 25.6914 38.811 24.8839 38.811 23.8877H37.0073ZM33.8855 23.8877H32.0817C32.0817 24.8839 32.8893 25.6914 33.8855 25.6914V23.8877ZM33.8855 14.4309V12.6272C32.8893 12.6272 32.0817 13.4347 32.0817 14.4309H33.8855ZM40.525 15.1771L39.3252 16.5238C39.3298 16.5279 39.3344 16.532 39.339 16.536L40.525 15.1771ZM37.8144 18.573L36.3466 17.5246C36.3415 17.5318 36.3364 17.539 36.3314 17.5463L37.8144 18.573ZM37.8144 17.1263L36.3847 18.2261L36.3847 18.2261L37.8144 17.1263ZM36.9464 16.9283V15.1246C35.9502 15.1246 35.1426 15.9322 35.1426 16.9283H36.9464ZM36.9464 18.771H35.1426C35.1426 19.7671 35.9502 20.5747 36.9464 20.5747V18.771ZM39.5589 17.4766C39.5589 17.6839 39.5413 17.8317 39.5206 17.931C39.5001 18.0296 39.4796 18.0655 39.4813 18.0625L42.6347 19.8144C43.0393 19.0862 43.1663 18.2615 43.1663 17.4766H39.5589ZM39.4728 18.0779C39.4508 18.1185 39.3776 18.2279 39.1523 18.3762L41.1363 21.389C41.7435 20.9892 42.2795 20.4691 42.6432 19.799L39.4728 18.0779ZM38.4438 20.484L39.86 24.489L43.2611 23.2864L41.8448 19.2813L38.4438 20.484ZM41.5605 22.084H38.1951V25.6914H41.5605V22.084ZM39.9275 23.3858L38.9834 20.1269L35.5185 21.1308L36.4626 24.3896L39.9275 23.3858ZM37.2509 18.8251H37.0073V22.4325H37.2509V18.8251ZM35.2036 20.6288V23.8877H38.811V20.6288H35.2036ZM37.0073 22.084H33.8855V25.6914H37.0073V22.084ZM35.6892 23.8877V14.4309H32.0817V23.8877H35.6892ZM33.8855 16.2346H37.921V12.6272H33.8855V16.2346ZM37.921 16.2346C38.8985 16.2346 39.2418 16.4496 39.3252 16.5238L41.7249 13.8303C40.6915 12.9097 39.2988 12.6272 37.921 12.6272V16.2346ZM39.339 16.536C39.3642 16.5581 39.5589 16.7304 39.5589 17.4766H43.1663C43.1663 16.1314 42.8025 14.7707 41.711 13.8181L39.339 16.536ZM37.3271 20.5747C37.866 20.5747 38.7336 20.414 39.2974 19.5997L36.3314 17.5463C36.5037 17.2974 36.7326 17.1367 36.9451 17.0504C37.1381 16.972 37.284 16.9673 37.3271 16.9673V20.5747ZM39.2821 19.6214C39.7305 18.9937 39.7704 18.256 39.7704 17.842H36.1629C36.1629 17.9347 36.1554 17.9513 36.1628 17.9158C36.167 17.8955 36.178 17.849 36.2033 17.7851C36.2285 17.7212 36.2724 17.6286 36.3466 17.5246L39.2821 19.6214ZM39.7704 17.842C39.7704 17.4508 39.739 16.67 39.244 16.0266L36.3847 18.2261C36.2951 18.1096 36.2426 18.0037 36.2127 17.9309C36.1827 17.858 36.1696 17.8041 36.1644 17.7796C36.1552 17.7364 36.1629 17.7481 36.1629 17.842H39.7704ZM39.244 16.0266C38.7084 15.3302 37.9435 15.1246 37.3423 15.1246V18.7321C37.2671 18.7321 37.1125 18.7208 36.9227 18.6412C36.72 18.5562 36.5298 18.4147 36.3847 18.2261L39.244 16.0266ZM37.3423 15.1246H36.9464V18.7321H37.3423V15.1246ZM35.1426 16.9283V18.771H38.7501V16.9283H35.1426ZM36.9464 20.5747H37.3271V16.9673H36.9464V20.5747Z" fill="#555E79" mask="url(#path-3-outside-1_880_40312)"/>
<mask id="path-5-outside-2_880_40312" maskUnits="userSpaceOnUse" x="2.3147" y="-0.473633" width="39" height="14" fill="black">
<rect fill="white" x="2.3147" y="-0.473633" width="39" height="14"/>
<path d="M4.55835 4.91726C4.55835 4.01371 4.82231 3.28783 5.35023 2.73961C5.87814 2.19139 6.59895 1.91728 7.51265 1.91728C8.4365 1.91728 9.38066 2.00865 10.3451 2.19139L10.0406 4.62792C9.03549 4.39442 8.34513 4.27767 7.9695 4.27767C7.49235 4.27767 7.25377 4.47056 7.25377 4.85635C7.25377 5.00863 7.36544 5.15584 7.58879 5.29797C7.82229 5.4401 8.10148 5.59239 8.42635 5.75482C8.75122 5.90711 9.07609 6.09492 9.40097 6.31827C9.72584 6.53147 9.99995 6.84111 10.2233 7.2472C10.4568 7.65329 10.5735 8.12029 10.5735 8.64821C10.5735 9.61267 10.3147 10.3589 9.7969 10.8868C9.27914 11.4147 8.5431 11.6787 7.58879 11.6787C6.64463 11.6787 5.72078 11.5314 4.81723 11.237L4.98474 8.968C6.07103 9.28272 6.82738 9.44008 7.25377 9.44008C7.68016 9.44008 7.89336 9.25227 7.89336 8.87663C7.89336 8.68374 7.77661 8.50608 7.54311 8.34364C7.31976 8.18121 7.04565 8.01877 6.72078 7.85633C6.39591 7.6939 6.06596 7.50608 5.73093 7.29289C5.40606 7.07969 5.12688 6.77005 4.89337 6.36396C4.67003 5.95787 4.55835 5.47564 4.55835 4.91726ZM14.1485 8.41978C14.1485 8.7345 14.2145 8.968 14.3465 9.12029C14.4785 9.27257 14.6917 9.34871 14.9861 9.34871C15.2906 9.34871 15.4988 9.27765 15.6104 9.13552C15.7323 8.98323 15.7932 8.73958 15.7932 8.40456V2.06956H18.4125V8.55684C18.4125 9.64313 18.113 10.435 17.514 10.9325C16.9252 11.4299 16.0521 11.6787 14.8947 11.6787C13.7475 11.6787 12.8896 11.435 12.3211 10.9477C11.7627 10.4502 11.4836 9.66343 11.4836 8.5873V2.06956H14.1485V8.41978ZM23.0109 8.43501H22.3104V11.5264H19.7521V2.06956H22.8434C23.9297 2.06956 24.7368 2.31829 25.2647 2.81575C25.7927 3.31321 26.0566 4.13047 26.0566 5.26752C26.0566 6.40457 25.8079 7.21674 25.3104 7.70405C24.813 8.19136 24.0465 8.43501 23.0109 8.43501ZM23.3003 6.37918C23.3917 6.2066 23.4373 5.89695 23.4373 5.45026C23.4373 5.00356 23.3866 4.68884 23.2851 4.5061C23.1835 4.32336 22.9805 4.23199 22.6759 4.23199H22.3104V6.63807H22.7368C23.0211 6.63807 23.2089 6.55177 23.3003 6.37918ZM31.9327 11.5264H26.816V2.06956H32.085L31.9327 4.3995H29.4201V5.81574H31.5977V7.82588H29.4201V9.3944H32.085L31.9327 11.5264ZM39.4448 5.06955C39.4448 5.63807 39.3585 6.11015 39.186 6.48578C39.0134 6.86142 38.7443 7.20152 38.3789 7.50608L39.6428 11.5264H36.8256L35.8814 8.11522H35.5311V11.5264H32.9728V2.06956H36.5058C37.521 2.06956 38.2621 2.30814 38.7291 2.78529C39.2063 3.26245 39.4448 4.02387 39.4448 5.06955ZM35.9271 6.51624C36.191 6.51624 36.3789 6.4401 36.4905 6.28781C36.6022 6.13553 36.658 5.86142 36.658 5.46548C36.658 5.05939 36.6022 4.78021 36.4905 4.62792C36.3789 4.46549 36.1961 4.38427 35.9423 4.38427H35.5311V6.51624H35.9271Z"/>
</mask>
<g filter="url(#filter1_i_880_40312)">
<path d="M4.55835 4.91726C4.55835 4.01371 4.82231 3.28783 5.35023 2.73961C5.87814 2.19139 6.59895 1.91728 7.51265 1.91728C8.4365 1.91728 9.38066 2.00865 10.3451 2.19139L10.0406 4.62792C9.03549 4.39442 8.34513 4.27767 7.9695 4.27767C7.49235 4.27767 7.25377 4.47056 7.25377 4.85635C7.25377 5.00863 7.36544 5.15584 7.58879 5.29797C7.82229 5.4401 8.10148 5.59239 8.42635 5.75482C8.75122 5.90711 9.07609 6.09492 9.40097 6.31827C9.72584 6.53147 9.99995 6.84111 10.2233 7.2472C10.4568 7.65329 10.5735 8.12029 10.5735 8.64821C10.5735 9.61267 10.3147 10.3589 9.7969 10.8868C9.27914 11.4147 8.5431 11.6787 7.58879 11.6787C6.64463 11.6787 5.72078 11.5314 4.81723 11.237L4.98474 8.968C6.07103 9.28272 6.82738 9.44008 7.25377 9.44008C7.68016 9.44008 7.89336 9.25227 7.89336 8.87663C7.89336 8.68374 7.77661 8.50608 7.54311 8.34364C7.31976 8.18121 7.04565 8.01877 6.72078 7.85633C6.39591 7.6939 6.06596 7.50608 5.73093 7.29289C5.40606 7.07969 5.12688 6.77005 4.89337 6.36396C4.67003 5.95787 4.55835 5.47564 4.55835 4.91726ZM14.1485 8.41978C14.1485 8.7345 14.2145 8.968 14.3465 9.12029C14.4785 9.27257 14.6917 9.34871 14.9861 9.34871C15.2906 9.34871 15.4988 9.27765 15.6104 9.13552C15.7323 8.98323 15.7932 8.73958 15.7932 8.40456V2.06956H18.4125V8.55684C18.4125 9.64313 18.113 10.435 17.514 10.9325C16.9252 11.4299 16.0521 11.6787 14.8947 11.6787C13.7475 11.6787 12.8896 11.435 12.3211 10.9477C11.7627 10.4502 11.4836 9.66343 11.4836 8.5873V2.06956H14.1485V8.41978ZM23.0109 8.43501H22.3104V11.5264H19.7521V2.06956H22.8434C23.9297 2.06956 24.7368 2.31829 25.2647 2.81575C25.7927 3.31321 26.0566 4.13047 26.0566 5.26752C26.0566 6.40457 25.8079 7.21674 25.3104 7.70405C24.813 8.19136 24.0465 8.43501 23.0109 8.43501ZM23.3003 6.37918C23.3917 6.2066 23.4373 5.89695 23.4373 5.45026C23.4373 5.00356 23.3866 4.68884 23.2851 4.5061C23.1835 4.32336 22.9805 4.23199 22.6759 4.23199H22.3104V6.63807H22.7368C23.0211 6.63807 23.2089 6.55177 23.3003 6.37918ZM31.9327 11.5264H26.816V2.06956H32.085L31.9327 4.3995H29.4201V5.81574H31.5977V7.82588H29.4201V9.3944H32.085L31.9327 11.5264ZM39.4448 5.06955C39.4448 5.63807 39.3585 6.11015 39.186 6.48578C39.0134 6.86142 38.7443 7.20152 38.3789 7.50608L39.6428 11.5264H36.8256L35.8814 8.11522H35.5311V11.5264H32.9728V2.06956H36.5058C37.521 2.06956 38.2621 2.30814 38.7291 2.78529C39.2063 3.26245 39.4448 4.02387 39.4448 5.06955ZM35.9271 6.51624C36.191 6.51624 36.3789 6.4401 36.4905 6.28781C36.6022 6.13553 36.658 5.86142 36.658 5.46548C36.658 5.05939 36.6022 4.78021 36.4905 4.62792C36.3789 4.46549 36.1961 4.38427 35.9423 4.38427H35.5311V6.51624H35.9271Z" fill="white"/>
</g>
<path d="M5.35023 2.73961L6.53162 3.87725L5.35023 2.73961ZM10.3451 2.19139L11.9726 2.39482C12.0799 1.53573 11.5011 0.741136 10.6504 0.579963L10.3451 2.19139ZM10.0406 4.62792L9.66941 6.22547C10.1219 6.33061 10.5978 6.23888 10.9789 5.97309C11.3599 5.70729 11.6104 5.29235 11.668 4.83135L10.0406 4.62792ZM7.58879 5.29797L6.70827 6.68166C6.71746 6.68751 6.72672 6.69327 6.73603 6.69894L7.58879 5.29797ZM8.42635 5.75482L7.69288 7.22177C7.70526 7.22796 7.71771 7.23399 7.73024 7.23986L8.42635 5.75482ZM9.40097 6.31827L8.4718 7.66978C8.4815 7.67645 8.49128 7.68301 8.50112 7.68947L9.40097 6.31827ZM10.2233 7.2472L8.78622 8.03759C8.79122 8.04669 8.79631 8.05574 8.80149 8.06474L10.2233 7.2472ZM9.7969 10.8868L8.62598 9.73837L9.7969 10.8868ZM4.81723 11.237L3.18159 11.1163C3.12601 11.8691 3.59142 12.5626 4.30911 12.7964L4.81723 11.237ZM4.98474 8.968L5.44114 7.39269C4.96618 7.25508 4.45448 7.33912 4.04848 7.62141C3.64248 7.9037 3.38551 8.3541 3.3491 8.84725L4.98474 8.968ZM7.54311 8.34364L6.57845 9.67005C6.58773 9.6768 6.59708 9.68345 6.60651 9.69001L7.54311 8.34364ZM6.72078 7.85633L7.45425 6.38939H7.45425L6.72078 7.85633ZM5.73093 7.29289L4.83108 8.66408C4.8375 8.66829 4.84394 8.67245 4.85041 8.67657L5.73093 7.29289ZM4.89337 6.36396L3.4563 7.15435C3.4613 7.16345 3.46639 7.1725 3.47157 7.1815L4.89337 6.36396ZM6.19845 4.91726C6.19845 4.35319 6.35199 4.06379 6.53162 3.87725L4.16883 1.60197C3.29263 2.51187 2.91826 3.67424 2.91826 4.91726H6.19845ZM6.53162 3.87725C6.68944 3.71336 6.94844 3.55737 7.51265 3.55737V0.277182C6.24946 0.277182 5.06684 0.669419 4.16883 1.60197L6.53162 3.87725ZM7.51265 3.55737C8.3279 3.55737 9.16976 3.63796 10.0398 3.80281L10.6504 0.579963C9.59157 0.379333 8.54511 0.277182 7.51265 0.277182V3.55737ZM8.71769 1.98796L8.41313 4.4245L11.668 4.83135L11.9726 2.39482L8.71769 1.98796ZM10.4117 3.03038C9.42602 2.80138 8.56017 2.63758 7.9695 2.63758V5.91777C8.13009 5.91777 8.64495 5.98747 9.66941 6.22547L10.4117 3.03038ZM7.9695 2.63758C7.55263 2.63758 6.93592 2.7149 6.40154 3.14695C5.8005 3.6329 5.61367 4.30745 5.61367 4.85635H8.89386C8.89386 4.92597 8.88333 5.06205 8.81479 5.22831C8.7421 5.40461 8.62226 5.56966 8.46387 5.69773C8.16806 5.93689 7.90922 5.91777 7.9695 5.91777V2.63758ZM5.61367 4.85635C5.61367 5.88569 6.36135 6.46089 6.70827 6.68166L8.46932 3.91429C8.46933 3.91429 8.4703 3.91491 8.47215 3.91617C8.47399 3.91743 8.47682 3.9194 8.48054 3.92213C8.48782 3.92747 8.49941 3.93637 8.51422 3.94916C8.54262 3.97369 8.59082 4.01938 8.64417 4.08972C8.75731 4.23885 8.89386 4.50337 8.89386 4.85635H5.61367ZM6.73603 6.69894C7.01857 6.87092 7.33965 7.04516 7.69288 7.22177L9.15982 4.28788C8.86331 4.13962 8.62602 4.00929 8.44156 3.897L6.73603 6.69894ZM7.73024 7.23986C7.96641 7.35056 8.21368 7.49232 8.4718 7.66978L10.3301 4.96676C9.93851 4.69753 9.53604 4.46365 9.12246 4.26978L7.73024 7.23986ZM8.50112 7.68947C8.56287 7.73 8.66711 7.82104 8.78622 8.03759L11.6604 6.45681C11.3328 5.86119 10.8888 5.33294 10.3008 4.94707L8.50112 7.68947ZM8.80149 8.06474C8.87453 8.19176 8.93345 8.37006 8.93345 8.64821H12.2136C12.2136 7.87053 12.0391 7.11482 11.6451 6.42966L8.80149 8.06474ZM8.93345 8.64821C8.93345 9.31887 8.75979 9.60193 8.62598 9.73837L10.9678 12.0352C11.8695 11.1158 12.2136 9.90648 12.2136 8.64821H8.93345ZM8.62598 9.73837C8.4994 9.86743 8.23676 10.0386 7.58879 10.0386V13.3187C8.84944 13.3187 10.0589 12.962 10.9678 12.0352L8.62598 9.73837ZM7.58879 10.0386C6.81834 10.0386 6.06591 9.91894 5.32535 9.67763L4.30911 12.7964C5.37565 13.144 6.47093 13.3187 7.58879 13.3187V10.0386ZM6.45288 11.3578L6.62039 9.08876L3.3491 8.84725L3.18159 11.1163L6.45288 11.3578ZM4.52835 10.5433C5.59628 10.8527 6.56339 11.0802 7.25377 11.0802V7.79999C7.09136 7.79999 6.54578 7.71273 5.44114 7.39269L4.52835 10.5433ZM7.25377 11.0802C7.67226 11.0802 8.29246 10.9925 8.81762 10.5299C9.38244 10.0323 9.53346 9.37502 9.53346 8.87663H6.25326C6.25326 8.75388 6.29768 8.37833 6.64931 8.06856C6.80432 7.932 6.96099 7.86366 7.07149 7.83122C7.17667 7.80033 7.24526 7.79999 7.25377 7.79999V11.0802ZM9.53346 8.87663C9.53346 7.92436 8.93265 7.31237 8.47971 6.99728L6.60651 9.69001C6.60619 9.68979 6.52338 9.63367 6.43516 9.49942C6.3364 9.34914 6.25326 9.13265 6.25326 8.87663H9.53346ZM8.50777 7.01724C8.19272 6.78812 7.8363 6.58042 7.45425 6.38939L5.9873 9.32328C6.25499 9.45712 6.44679 9.5743 6.57845 9.67005L8.50777 7.01724ZM7.45425 6.38939C7.1842 6.25436 6.90327 6.0949 6.61146 5.9092L4.85041 8.67657C5.22864 8.91727 5.60761 9.13344 5.9873 9.32328L7.45425 6.38939ZM6.63078 5.92169C6.5607 5.8757 6.44656 5.7749 6.31518 5.54642L3.47157 7.1815C3.80719 7.76519 4.25142 8.28368 4.83108 8.66408L6.63078 5.92169ZM6.33045 5.57356C6.26503 5.45462 6.19845 5.25563 6.19845 4.91726H2.91826C2.91826 5.69564 3.07502 6.46111 3.4563 7.15435L6.33045 5.57356ZM15.6104 9.13552L14.3297 8.11096C14.3267 8.1147 14.3238 8.11846 14.3208 8.12223L15.6104 9.13552ZM15.7932 2.06956V0.429466C14.8874 0.429466 14.1531 1.16376 14.1531 2.06956H15.7932ZM18.4125 2.06956H20.0526C20.0526 1.16376 19.3183 0.429466 18.4125 0.429466V2.06956ZM17.514 10.9325L16.4661 9.67071L16.4556 9.67962L17.514 10.9325ZM12.3211 10.9477L11.2301 12.1723C11.2379 12.1792 11.2458 12.1861 11.2538 12.1929L12.3211 10.9477ZM11.4836 2.06956V0.429466C10.5778 0.429466 9.84347 1.16376 9.84347 2.06956H11.4836ZM14.1485 2.06956H15.7886C15.7886 1.16376 15.0543 0.429466 14.1485 0.429466V2.06956ZM12.5084 8.41978C12.5084 8.91798 12.6057 9.61591 13.1071 10.1944L15.5859 8.04614C15.7065 8.18528 15.757 8.31651 15.7763 8.38491C15.7944 8.4489 15.7886 8.46844 15.7886 8.41978H12.5084ZM13.1071 10.1944C13.6722 10.8465 14.44 10.9888 14.9861 10.9888V7.70862C14.9433 7.70862 15.2847 7.69862 15.5859 8.04614L13.1071 10.1944ZM14.9861 10.9888C15.4567 10.9888 16.3161 10.892 16.9001 10.1488L14.3208 8.12223C14.4996 7.89471 14.7102 7.78784 14.8406 7.74331C14.9588 7.70294 15.0222 7.70862 14.9861 7.70862V10.9888ZM16.8911 10.1601C17.3616 9.57203 17.4333 8.87001 17.4333 8.40456H14.1531C14.1531 8.47955 14.1456 8.484 14.1564 8.44078C14.1673 8.39714 14.2074 8.26395 14.3297 8.11096L16.8911 10.1601ZM17.4333 8.40456V2.06956H14.1531V8.40456H17.4333ZM15.7932 3.70966H18.4125V0.429466H15.7932V3.70966ZM16.7724 2.06956V8.55684H20.0526V2.06956H16.7724ZM16.7724 8.55684C16.7724 9.3573 16.5583 9.59424 16.4661 9.67075L18.5618 12.1942C19.6677 11.2758 20.0526 9.92896 20.0526 8.55684H16.7724ZM16.4556 9.67962C16.2798 9.8281 15.852 10.0386 14.8947 10.0386V13.3187C16.2522 13.3187 17.5705 13.0317 18.5724 12.1853L16.4556 9.67962ZM14.8947 10.0386C13.9394 10.0386 13.5369 9.82969 13.3885 9.70244L11.2538 12.1929C12.2423 13.0403 13.5557 13.3187 14.8947 13.3187V10.0386ZM13.4121 9.7231C13.3341 9.65357 13.1237 9.40572 13.1237 8.5873H9.84347C9.84347 9.92114 10.1914 11.2469 11.2301 12.1723L13.4121 9.7231ZM13.1237 8.5873V2.06956H9.84347V8.5873H13.1237ZM11.4836 3.70966H14.1485V0.429466H11.4836V3.70966ZM12.5084 2.06956V8.41978H15.7886V2.06956H12.5084ZM22.3104 8.43501V6.79492C21.4046 6.79492 20.6703 7.52921 20.6703 8.43501H22.3104ZM22.3104 11.5264V13.1665C23.2162 13.1665 23.9505 12.4322 23.9505 11.5264H22.3104ZM19.7521 11.5264H18.112C18.112 12.4322 18.8463 13.1665 19.7521 13.1665V11.5264ZM19.7521 2.06956V0.429466C18.8463 0.429466 18.112 1.16376 18.112 2.06956H19.7521ZM25.3104 7.70405L24.1627 6.53243L24.1627 6.53243L25.3104 7.70405ZM23.3003 6.37918L21.8508 5.6118V5.6118L23.3003 6.37918ZM23.2851 4.5061L24.7188 3.7096V3.7096L23.2851 4.5061ZM22.3104 4.23199V2.59189C21.4046 2.59189 20.6703 3.32619 20.6703 4.23199H22.3104ZM22.3104 6.63807H20.6703C20.6703 7.54387 21.4046 8.27816 22.3104 8.27816V6.63807ZM23.0109 6.79492H22.3104V10.0751H23.0109V6.79492ZM20.6703 8.43501V11.5264H23.9505V8.43501H20.6703ZM22.3104 9.88627H19.7521V13.1665H22.3104V9.88627ZM21.3922 11.5264V2.06956H18.112V11.5264H21.3922ZM19.7521 3.70966H22.8434V0.429466H19.7521V3.70966ZM22.8434 3.70966C23.7155 3.70966 24.0379 3.91323 24.14 4.00939L26.3895 1.62211C25.4357 0.723351 24.1439 0.429466 22.8434 0.429466V3.70966ZM24.14 4.00939C24.1925 4.05889 24.4165 4.33112 24.4165 5.26752H27.6967C27.6967 3.92981 27.3928 2.56753 26.3895 1.62211L24.14 4.00939ZM24.4165 5.26752C24.4165 6.2307 24.1954 6.50045 24.1627 6.53243L26.4581 8.87567C27.4204 7.93304 27.6967 6.57843 27.6967 5.26752H24.4165ZM24.1627 6.53243C24.0931 6.60062 23.824 6.79492 23.0109 6.79492V10.0751C24.269 10.0751 25.5328 9.78209 26.4581 8.87567L24.1627 6.53243ZM24.7498 7.14657C25.0484 6.58243 25.0774 5.9037 25.0774 5.45026H21.7972C21.7972 5.53459 21.7951 5.60427 21.7917 5.6607C21.7882 5.71761 21.7838 5.75578 21.7805 5.77812C21.7771 5.80149 21.7762 5.79838 21.7826 5.77567C21.7886 5.75482 21.8072 5.69406 21.8508 5.6118L24.7498 7.14657ZM25.0774 5.45026C25.0774 4.97424 25.0397 4.28724 24.7188 3.7096L21.8514 5.3026C21.8093 5.22696 21.7902 5.17025 21.7834 5.14798C21.7763 5.12459 21.7768 5.1199 21.7801 5.14035C21.7833 5.16 21.7878 5.19527 21.7914 5.24908C21.7949 5.30244 21.7972 5.36902 21.7972 5.45026H25.0774ZM24.7188 3.7096C24.2064 2.78728 23.2745 2.59189 22.6759 2.59189V5.87208C22.6716 5.87208 22.6425 5.87187 22.5948 5.86327C22.5466 5.85461 22.4725 5.83614 22.3836 5.79615C22.1852 5.70687 21.9837 5.54087 21.8514 5.3026L24.7188 3.7096ZM22.6759 2.59189H22.3104V5.87208H22.6759V2.59189ZM20.6703 4.23199V6.63807H23.9505V4.23199H20.6703ZM22.3104 8.27816H22.7368V4.99797H22.3104V8.27816ZM22.7368 8.27816C23.319 8.27816 24.2538 8.08336 24.7498 7.14656L21.8508 5.6118C21.9839 5.36032 22.1931 5.18091 22.4062 5.08303C22.5917 4.99776 22.726 4.99797 22.7368 4.99797V8.27816ZM31.9327 11.5264V13.1665C32.7932 13.1665 33.5074 12.5015 33.5687 11.6432L31.9327 11.5264ZM26.816 11.5264H25.1759C25.1759 12.4322 25.9102 13.1665 26.816 13.1665V11.5264ZM26.816 2.06956V0.429466C25.9102 0.429466 25.1759 1.16376 25.1759 2.06956H26.816ZM32.085 2.06956L33.7216 2.17653C33.7512 1.72394 33.592 1.2793 33.282 0.948295C32.9719 0.617288 32.5386 0.429466 32.085 0.429466V2.06956ZM31.9327 4.3995V6.03959C32.797 6.03959 33.513 5.3689 33.5693 4.50647L31.9327 4.3995ZM29.4201 4.3995V2.7594C28.5143 2.7594 27.78 3.4937 27.78 4.3995H29.4201ZM29.4201 5.81574H27.78C27.78 6.72154 28.5143 7.45583 29.4201 7.45583V5.81574ZM31.5977 5.81574H33.2378C33.2378 4.90994 32.5035 4.17564 31.5977 4.17564V5.81574ZM31.5977 7.82588V9.46597C32.5035 9.46597 33.2378 8.73168 33.2378 7.82588H31.5977ZM29.4201 7.82588V6.18578C28.5143 6.18578 27.78 6.92008 27.78 7.82588H29.4201ZM29.4201 9.3944H27.78C27.78 10.3002 28.5143 11.0345 29.4201 11.0345V9.3944ZM32.085 9.3944L33.7209 9.51125C33.7534 9.05713 33.5956 8.60995 33.2853 8.27675C32.9751 7.94355 32.5403 7.7543 32.085 7.7543V9.3944ZM31.9327 9.88627H26.816V13.1665H31.9327V9.88627ZM28.4561 11.5264V2.06956H25.1759V11.5264H28.4561ZM26.816 3.70966H32.085V0.429466H26.816V3.70966ZM30.4484 1.96259L30.2961 4.29253L33.5693 4.50647L33.7216 2.17653L30.4484 1.96259ZM31.9327 2.7594H29.4201V6.03959H31.9327V2.7594ZM27.78 4.3995V5.81574H31.0602V4.3995H27.78ZM29.4201 7.45583H31.5977V4.17564H29.4201V7.45583ZM29.9576 5.81574V7.82588H33.2378V5.81574H29.9576ZM31.5977 6.18578H29.4201V9.46597H31.5977V6.18578ZM27.78 7.82588V9.3944H31.0602V7.82588H27.78ZM29.4201 11.0345H32.085V7.7543H29.4201V11.0345ZM30.4491 9.27755L30.2968 11.4095L33.5687 11.6432L33.7209 9.51125L30.4491 9.27755ZM39.186 6.48578L37.6956 5.80104V5.80104L39.186 6.48578ZM38.3788 7.50608L37.3289 6.24613C36.8181 6.67178 36.6148 7.3637 36.8143 7.99798L38.3788 7.50608ZM39.6428 11.5264V13.1665C40.165 13.1665 40.6561 12.9177 40.965 12.4967C41.274 12.0757 41.364 11.5327 41.2074 11.0345L39.6428 11.5264ZM36.8256 11.5264L35.2449 11.9639C35.4416 12.6745 36.0883 13.1665 36.8256 13.1665V11.5264ZM35.8814 8.11522L37.4621 7.67771C37.2654 6.96712 36.6187 6.47512 35.8814 6.47512V8.11522ZM35.5311 8.11522V6.47512C34.6253 6.47512 33.8911 7.20942 33.8911 8.11522H35.5311ZM35.5311 11.5264V13.1665C36.4369 13.1665 37.1712 12.4322 37.1712 11.5264H35.5311ZM32.9728 11.5264H31.3327C31.3327 12.4322 32.067 13.1665 32.9728 13.1665V11.5264ZM32.9728 2.06956V0.429466C32.067 0.429466 31.3327 1.16376 31.3327 2.06956H32.9728ZM38.7291 2.78529L37.557 3.93248C37.5611 3.93668 37.5652 3.94086 37.5694 3.94502L38.7291 2.78529ZM36.4905 6.28781L37.8131 7.25771V7.25771L36.4905 6.28781ZM36.4905 4.62792L35.139 5.55709C35.1485 5.57081 35.1581 5.58439 35.168 5.59782L36.4905 4.62792ZM35.5311 4.38427V2.74418C34.6253 2.74418 33.8911 3.47847 33.8911 4.38427H35.5311ZM35.5311 6.51624H33.8911C33.8911 7.42204 34.6253 8.15634 35.5311 8.15634V6.51624ZM37.8047 5.06955C37.8047 5.48512 37.7398 5.70491 37.6956 5.80104L40.6763 7.17052C40.9773 6.5154 41.0849 5.79102 41.0849 5.06955H37.8047ZM37.6956 5.80104C37.6395 5.92329 37.5349 6.07449 37.3289 6.24613L39.4288 8.76604C39.9538 8.32855 40.3873 7.79954 40.6763 7.17052L37.6956 5.80104ZM36.8143 7.99798L38.0782 12.0183L41.2074 11.0345L39.9434 7.01418L36.8143 7.99798ZM39.6428 9.88627H36.8256V13.1665H39.6428V9.88627ZM38.4062 11.0889L37.4621 7.67771L34.3007 8.55272L35.2449 11.9639L38.4062 11.0889ZM35.8814 6.47512H35.5311V9.75531H35.8814V6.47512ZM33.8911 8.11522V11.5264H37.1712V8.11522H33.8911ZM35.5311 9.88627H32.9728V13.1665H35.5311V9.88627ZM34.6129 11.5264V2.06956H31.3327V11.5264H34.6129ZM32.9728 3.70966H36.5058V0.429466H32.9728V3.70966ZM36.5058 3.70966C37.3063 3.70966 37.5273 3.90214 37.557 3.93248L39.9012 1.63811C38.9969 0.714142 37.7357 0.429466 36.5058 0.429466V3.70966ZM37.5694 3.94502C37.6061 3.98175 37.8047 4.22569 37.8047 5.06955H41.0849C41.0849 3.82204 40.8064 2.54315 39.8888 1.62557L37.5694 3.94502ZM35.9271 8.15634C36.4911 8.15634 37.2811 7.98318 37.8131 7.25771L35.168 5.31792C35.3052 5.13072 35.4832 5.00671 35.6497 4.93919C35.801 4.87788 35.9086 4.87614 35.9271 4.87614V8.15634ZM37.8131 7.25771C38.2601 6.64814 38.2981 5.8985 38.2981 5.46548H35.018C35.018 5.52674 35.0158 5.57204 35.0131 5.60339C35.0105 5.63528 35.0079 5.64632 35.0091 5.64065C35.0101 5.63579 35.017 5.60284 35.0373 5.55105C35.0575 5.49958 35.0967 5.4151 35.168 5.31792L37.8131 7.25771ZM38.2981 5.46548C38.2981 5.03337 38.2632 4.2718 37.8131 3.65803L35.168 5.59782C35.0944 5.49745 35.0548 5.41063 35.0349 5.35951C35.0149 5.30789 35.0085 5.27588 35.0079 5.27318C35.0072 5.26954 35.0101 5.28304 35.0129 5.31791C35.0157 5.35219 35.018 5.40071 35.018 5.46548H38.2981ZM37.842 3.69876C37.3378 2.96537 36.5629 2.74418 35.9423 2.74418V6.02437C35.8993 6.02437 35.7703 6.01801 35.6036 5.94392C35.4226 5.86345 35.2573 5.72914 35.139 5.55709L37.842 3.69876ZM35.9423 2.74418H35.5311V6.02437H35.9423V2.74418ZM33.8911 4.38427V6.51624H37.1712V4.38427H33.8911ZM35.5311 8.15634H35.9271V4.87614H35.5311V8.15634Z" fill="#555E79" mask="url(#path-5-outside-2_880_40312)"/>
<defs>
<filter id="filter0_i_880_40312" x="2.36597" y="14.0979" width="39.1946" height="9.94209" filterUnits="userSpaceOnUse" color-interpolation-filters="sRGB">
<feFlood flood-opacity="0" result="BackgroundImageFix"/>
<feBlend mode="normal" in="SourceGraphic" in2="BackgroundImageFix" result="shape"/>
<feColorMatrix in="SourceAlpha" type="matrix" values="0 0 0 0 0 0 0 0 0 0 0 0 0 0 0 0 0 0 127 0" result="hardAlpha"/>
<feOffset dy="-0.270557"/>
<feGaussianBlur stdDeviation="0.0901856"/>
<feComposite in2="hardAlpha" operator="arithmetic" k2="-1" k3="1"/>
<feColorMatrix type="matrix" values="0 0 0 0 0.251579 0 0 0 0 0.251579 0 0 0 0 0.251579 0 0 0 0.5 0"/>
<feBlend mode="normal" in2="shape" result="effect1_innerShadow_880_40312"/>
</filter>
<filter id="filter1_i_880_40312" x="4.55835" y="1.75298" width="35.0845" height="9.92573" filterUnits="userSpaceOnUse" color-interpolation-filters="sRGB">
<feFlood flood-opacity="0" result="BackgroundImageFix"/>
<feBlend mode="normal" in="SourceGraphic" in2="BackgroundImageFix" result="shape"/>
<feColorMatrix in="SourceAlpha" type="matrix" values="0 0 0 0 0 0 0 0 0 0 0 0 0 0 0 0 0 0 127 0" result="hardAlpha"/>
<feOffset dy="-0.246014"/>
<feGaussianBlur stdDeviation="0.0820048"/>
<feComposite in2="hardAlpha" operator="arithmetic" k2="-1" k3="1"/>
<feColorMatrix type="matrix" values="0 0 0 0 0.251579 0 0 0 0 0.251579 0 0 0 0 0.251579 0 0 0 0.5 0"/>
<feBlend mode="normal" in2="shape" result="effect1_innerShadow_880_40312"/>
</filter>
</defs>
</svg>